<svg width="66" height="38" viewBox="0 0 66 38" fill="none" xmlns="http://www.w3.org/2000/svg">
<path d="M1.44625 1.67115C2.37257 0.762126 3.62875 0.251465 4.93856 0.251465C6.24837 0.251465 7.50455 0.762126 8.43087 1.67115L32.882 25.6731L57.3331 1.67115C58.2647 0.787889 59.5124 0.299147 60.8076 0.310195C62.1027 0.321243 63.3417 0.831195 64.2575 1.73022C65.1733 2.62924 65.6928 3.84539 65.7041 5.11675C65.7153 6.38811 65.2175 7.61295 64.3177 8.52745L36.3743 35.9575C35.448 36.8666 34.1918 37.3772 32.882 37.3772C31.5722 37.3772 30.316 36.8666 29.3897 35.9575L1.44625 8.52745C0.520218 7.61816 0 6.38505 0 5.0993C0 3.81355 0.520218 2.58045 1.44625 1.67115Z" fill="#222222"/>
</svg>
